<svg xmlns="http://www.w3.org/2000/svg" fill="none" viewBox="0.86 0.24 209.52 209.52">
  <rect x="0.861664" y="0.238281" width="209.524" height="209.524" rx="56" fill="#090909"/>
  <path d="M89.271 96.3714L117.868 79.6147L114.853 69.9678L85.2505 87.2402L89.2572 96.3853L89.271 96.3714Z" fill="#FDFDFC"/>
  <path d="M120.374 142.585L85.76 122.273L88.2658 113.128L123.376 133.439L120.36 142.585H120.374Z" fill="#FDFDFC"/>
  <path d="M159.711 165.14L142.28 175.373C139.912 176.767 136.979 176.767 134.597 175.373L117.166 165.14C114.812 163.76 113.352 161.195 113.352 158.435V137.398C113.352 134.638 114.812 132.087 117.166 130.693L134.597 120.461C136.965 119.067 139.898 119.067 142.28 120.461L159.711 130.693C162.065 132.073 163.525 134.638 163.525 137.398V158.435C163.525 161.195 162.065 163.746 159.711 165.14Z" fill="#FDFDFC"/>
  <path d="M90.276 94.2244V115.261C90.276 118.021 88.8165 120.572 86.4621 121.966L85.8288 122.343L70.7109 113.644L79.2336 126.218L69.0311 132.213C66.663 133.607 63.7303 133.607 61.3483 132.213L43.9173 121.98C41.5629 120.6 40.1034 118.035 40.1034 115.275V94.2383C40.1034 91.4781 41.5629 88.9269 43.9173 87.5329L61.3483 77.3004C63.7165 75.9064 66.6492 75.9064 69.0311 77.3004L86.4621 87.5329C88.8165 88.913 90.276 91.4781 90.276 94.2383V94.2244Z" fill="#FDFDFC"/>
  <path d="M159.711 79.3079L142.28 89.5403C139.912 90.9344 136.979 90.9344 134.597 89.5403L125.179 84.0059L134.927 69.4379L117.799 79.6703L117.166 79.3079C114.812 77.9277 113.352 75.3627 113.352 72.6024V51.566C113.352 48.8057 114.812 46.2546 117.166 44.8605L134.597 34.6281C136.965 33.234 139.898 33.234 142.28 34.6281L159.711 44.8605C162.065 46.2406 163.525 48.8057 163.525 51.566V72.6024C163.525 75.3627 162.065 77.9138 159.711 79.3079Z" fill="#FDFDFC"/>
</svg>