<?xml version="1.0" encoding="UTF-8"?>
<svg id="Layer_1" xmlns="http://www.w3.org/2000/svg" baseProfile="tiny" version="1.2" viewBox="0 0 206 52.4">
  <!-- Generator: Adobe Illustrator 29.1.0, SVG Export Plug-In . SVG Version: 2.1.0 Build 142)  -->
  <rect width="52.4" height="52.4" rx="14" ry="14" fill="#fdfdfc"/>
  <path d="M22.1,24.1l7.2-4.2-.8-2.4-7.4,4.3,1,2.3h0Z" fill="#090909"/>
  <path d="M29.9,35.6l-8.7-5.1.6-2.3,8.8,5.1-.8,2.3h0Z" fill="#090909"/>
  <path d="M39.7,41.3l-4.4,2.6c-.6.3-1.3.3-1.9,0l-4.4-2.6c-.6-.3-1-1-1-1.7v-5.3c0-.7.4-1.3,1-1.7l4.4-2.6c.6-.3,1.3-.3,1.9,0l4.4,2.6c.6.3,1,1,1,1.7v5.3c0,.7-.4,1.3-1,1.7Z" fill="#090909"/>
  <path d="M22.4,23.5v5.3c0,.7-.4,1.3-1,1.7h-.2c0,0-3.8-2.1-3.8-2.1l2.1,3.1-2.6,1.5c-.6.3-1.3.3-1.9,0l-4.4-2.6c-.6-.3-1-1-1-1.7v-5.3c0-.7.4-1.3,1-1.7l4.4-2.6c.6-.3,1.3-.3,1.9,0l4.4,2.6c.6.3,1,1,1,1.7h0Z" fill="#090909"/>
  <path d="M39.7,19.8l-4.4,2.6c-.6.3-1.3.3-1.9,0l-2.4-1.4,2.4-3.6-4.3,2.6h-.2c-.6-.4-1-1.1-1-1.8v-5.3c0-.7.4-1.3,1-1.7l4.4-2.6c.6-.3,1.3-.3,1.9,0l4.4,2.6c.6.3,1,1,1,1.7v5.3c0,.7-.4,1.3-1,1.7Z" fill="#090909"/>
  <path d="M62.4,13.5h3.8v9.6c1.5-1.8,3.6-2.9,6.1-2.9,4.9,0,8.5,3.9,8.5,9.1s-3.7,9.1-8.5,9.1-4.7-1.1-6.1-2.9v2.5h-3.8V13.5ZM77,29.3c0-3.1-2.3-5.4-5.3-5.4s-5.4,2.3-5.4,5.4,2.3,5.4,5.4,5.4,5.3-2.3,5.3-5.4Z" fill="#fdfdfc"/>
  <path d="M82.6,29.3c0-5.2,4-9.1,9.3-9.1s9.3,3.9,9.3,9.1-4,9.1-9.3,9.1-9.3-3.9-9.3-9.1ZM97.2,29.3c0-3.1-2.3-5.4-5.3-5.4s-5.4,2.3-5.4,5.4,2.3,5.4,5.4,5.4,5.3-2.3,5.3-5.4Z" fill="#fdfdfc"/>
  <path d="M105.2,32.6v-8.5h-2.9v-3.5h1.8c.9,0,1.4-.5,1.4-1.4v-3.3h3.6v4.7h4.3v3.5h-4.3v7.9c0,1.5,1,2.4,2.5,2.4h1.7v3.5h-2.3c-3.8,0-5.8-1.9-5.8-5.3h0Z" fill="#fdfdfc"/>
  <path d="M116.8,20.6h3.8v2.5c1.5-1.8,3.6-2.9,6.1-2.9,4.9,0,8.5,3.9,8.5,9.1s-3.7,9.1-8.5,9.1-4.7-1.1-6.1-2.9v8.9h-3.8v-23.7ZM131.4,29.3c0-3.1-2.3-5.4-5.3-5.4s-5.4,2.3-5.4,5.4,2.3,5.4,5.4,5.4,5.3-2.3,5.3-5.4Z" fill="#fdfdfc"/>
  <path d="M138.2,20.6h3.8v2.9c1.4-2,3.4-3.2,5.8-3.2h.6v3.9h-.6c-3.7,0-5.8,2.1-5.8,5.3v8.4h-3.8v-17.3Z" fill="#fdfdfc"/>
  <path d="M149.5,29.3c0-5.2,4-9.1,9.2-9.1s9.3,3.9,9.3,9.1,0,1-.1,1.4h-14.3c.6,2.5,2.6,4.2,5.3,4.2s3.7-.9,4.6-2.2h4.2c-1.4,3.4-4.8,5.6-8.9,5.6s-9.4-3.9-9.4-9.1h0ZM153.6,27.6h10.3c-.6-2.4-2.6-4-5.2-4s-4.5,1.6-5.1,4Z" fill="#fdfdfc"/>
  <path d="M170.2,32.8h3.9c0,1.3,1.3,2.2,3.1,2.2s2.8-.8,2.8-1.9c0-3.1-9.5-1.4-9.5-7.5s2.7-5.4,6.5-5.4,6.6,2.1,6.6,5.3h-3.9c0-1.2-1.1-2-2.8-2s-2.7.7-2.7,1.8c0,3,9.6,1.4,9.6,7.5s-2.7,5.6-6.7,5.6-6.9-2.2-6.9-5.5h0Z" fill="#fdfdfc"/>
  <path d="M186.3,32.8h3.9c0,1.3,1.3,2.2,3.1,2.2s2.8-.8,2.8-1.9c0-3.1-9.5-1.4-9.5-7.5s2.7-5.4,6.5-5.4,6.6,2.1,6.6,5.3h-3.9c0-1.2-1.1-2-2.8-2s-2.7.7-2.7,1.8c0,3,9.6,1.4,9.6,7.5s-2.7,5.6-6.7,5.6-6.9-2.2-6.9-5.5h0Z" fill="#fdfdfc"/>
</svg>