<svg width="100%" height="100%" viewBox="0 0 801 210" fill="none" xmlns="http://www.w3.org/2000/svg">
  <rect x="0.861664" y="0.238281" width="209.524" height="209.524" rx="56" fill="#090909"></rect>
  <path
    d="M89.271 96.3714L117.868 79.6147L114.853 69.9678L85.2505 87.2402L89.2572 96.3853L89.271 96.3714Z"
    fill="#FDFDFC"></path>
  <path d="M120.374 142.585L85.76 122.273L88.2658 113.128L123.376 133.439L120.36 142.585H120.374Z"
    fill="#FDFDFC"></path>
  <path
    d="M159.711 165.14L142.28 175.373C139.912 176.767 136.979 176.767 134.597 175.373L117.166 165.14C114.812 163.76 113.352 161.195 113.352 158.435V137.398C113.352 134.638 114.812 132.087 117.166 130.693L134.597 120.461C136.965 119.067 139.898 119.067 142.28 120.461L159.711 130.693C162.065 132.073 163.525 134.638 163.525 137.398V158.435C163.525 161.195 162.065 163.746 159.711 165.14Z"
    fill="#FDFDFC"></path>
  <path
    d="M90.276 94.2244V115.261C90.276 118.021 88.8165 120.572 86.4621 121.966L85.8288 122.343L70.7109 113.644L79.2336 126.218L69.0311 132.213C66.663 133.607 63.7303 133.607 61.3483 132.213L43.9173 121.98C41.5629 120.6 40.1034 118.035 40.1034 115.275V94.2383C40.1034 91.4781 41.5629 88.9269 43.9173 87.5329L61.3483 77.3004C63.7165 75.9064 66.6492 75.9064 69.0311 77.3004L86.4621 87.5329C88.8165 88.913 90.276 91.4781 90.276 94.2383V94.2244Z"
    fill="#FDFDFC"></path>
  <path
    d="M159.711 79.3079L142.28 89.5403C139.912 90.9344 136.979 90.9344 134.597 89.5403L125.179 84.0059L134.927 69.4379L117.799 79.6703L117.166 79.3079C114.812 77.9277 113.352 75.3627 113.352 72.6024V51.566C113.352 48.8057 114.812 46.2546 117.166 44.8605L134.597 34.6281C136.965 33.234 139.898 33.234 142.28 34.6281L159.711 44.8605C162.065 46.2406 163.525 48.8057 163.525 51.566V72.6024C163.525 75.3627 162.065 77.9138 159.711 79.3079Z"
    fill="#FDFDFC"></path>
  <path
    d="M250.385 54.0962H265.605V92.4593C271.442 85.2671 279.876 80.9285 290.062 80.9285C309.498 80.9285 324.178 96.5213 324.178 117.122C324.178 137.723 309.498 153.316 290.062 153.316C279.876 153.316 271.442 148.978 265.605 141.785V151.686H250.385V54.0962ZM308.419 117.137C308.419 104.936 299.313 95.575 287.085 95.575C274.857 95.575 265.62 104.936 265.62 117.137C265.62 129.337 274.857 138.699 287.085 138.699C299.313 138.699 308.419 129.337 308.419 117.137Z"
    fill="#090909"></path>
  <path
    d="M331.051 117.136C331.051 96.5351 346.957 80.9424 368.144 80.9424C389.332 80.9424 405.238 96.5351 405.238 117.136C405.238 137.737 389.201 153.33 368.144 153.33C347.088 153.33 331.051 137.737 331.051 117.136ZM389.478 117.136C389.478 104.936 380.373 95.5742 368.144 95.5742C355.916 95.5742 346.679 104.936 346.679 117.136C346.679 129.337 355.916 138.698 368.144 138.698C380.373 138.698 389.478 129.337 389.478 117.136Z"
    fill="#090909"></path>
  <path
    d="M421.187 130.429V96.39H409.498V82.5589H416.561C420.092 82.5589 421.989 80.6662 421.989 77.1284V63.8359H436.392V82.5443H453.508V96.3754H436.392V127.969C436.392 134.069 440.2 137.738 446.577 137.738H453.508V151.7H444.403C429.314 151.7 421.172 144.115 421.172 130.415L421.187 130.429Z"
    fill="#090909"></path>
  <path
    d="M467.831 82.573H483.051V92.4732C488.888 85.281 497.322 80.9424 507.507 80.9424C526.944 80.9424 541.609 96.5351 541.609 117.136C541.609 137.737 526.929 153.33 507.507 153.33C497.322 153.33 488.888 148.991 483.051 141.799V177.454H467.831V82.573ZM525.864 117.136C525.864 104.936 516.759 95.5742 504.53 95.5742C492.302 95.5742 483.065 104.936 483.065 117.136C483.065 129.337 492.302 138.698 504.53 138.698C516.759 138.698 525.864 129.337 525.864 117.136Z"
    fill="#090909"></path>
  <path
    d="M553.16 82.5735H568.379V94.1042C573.808 86.2423 581.833 81.4961 591.61 81.4961H594.062V97.0889H591.61C576.93 97.0889 568.379 105.358 568.379 118.098V151.714H553.16V82.5735Z"
    fill="#090909"></path>
  <path
    d="M598.132 117.136C598.132 96.5351 614.037 80.9424 635.094 80.9424C656.15 80.9424 672.187 96.5351 672.187 117.282C672.187 119.174 672.056 121.213 671.778 122.974H614.431C616.737 133.006 624.894 139.645 635.765 139.645C643.776 139.645 650.707 136.121 654.253 130.836H671.107C665.533 144.26 651.948 153.345 635.502 153.345C614.037 153.345 598.132 137.752 598.132 117.151V117.136ZM614.577 110.497H655.888C653.582 101.005 645.425 94.6279 635.094 94.6279C624.762 94.6279 617.029 100.859 614.577 110.497Z"
    fill="#090909"></path>
  <path
    d="M681.177 131.375H696.673C696.673 136.66 701.708 140.183 709.033 140.183C715.833 140.183 720.313 137.068 720.313 132.729C720.313 120.252 682.256 127.167 682.256 102.635C682.256 89.2119 692.996 80.9424 708.347 80.9424C723.698 80.9424 734.715 89.4885 734.715 101.951H719.218C719.218 97.2049 714.739 93.9582 708.216 93.9582C701.693 93.9582 697.622 96.8118 697.622 101.005C697.622 113.074 735.81 106.421 735.81 131.098C735.81 144.522 725.07 153.33 708.902 153.33C692.734 153.33 681.177 144.376 681.177 131.36V131.375Z"
    fill="#090909"></path>
  <path
    d="M745.505 131.375H761.002C761.002 136.66 766.037 140.183 773.362 140.183C780.162 140.183 784.642 137.068 784.642 132.729C784.642 120.252 746.585 127.167 746.585 102.635C746.585 89.2119 757.325 80.9424 772.676 80.9424C788.027 80.9424 799.044 89.4885 799.044 101.951H783.547C783.547 97.2049 779.067 93.9582 772.545 93.9582C766.022 93.9582 761.951 96.8118 761.951 101.005C761.951 113.074 800.138 106.421 800.138 131.098C800.138 144.522 789.399 153.33 773.23 153.33C757.062 153.33 745.505 144.376 745.505 131.36V131.375Z"
    fill="#090909"></path>
</svg>
