<svg width="7866" height="1773" viewBox="0 0 7866 1773" fill="none" xmlns="http://www.w3.org/2000/svg">
<path d="M6962.88 907.213C7070.85 936.142 7120.01 1102.76 7072.69 1279.34C7025.38 1455.93 6899.49 1575.64 6791.53 1546.71C6683.56 1517.78 6634.4 1351.16 6681.72 1174.58C6729.03 997.996 6854.92 878.284 6962.88 907.213Z" fill="#B4577A"/>
<path d="M6791.52 1546.75C6683.55 1517.82 6634.39 1351.21 6681.71 1174.62C6729.02 998.037 6854.91 878.325 6962.87 907.254" stroke="#FFA5C1" stroke-width="5" stroke-miterlimit="10" stroke-dasharray="15 15"/>
<path d="M6962.88 907.213C7070.85 936.142 7120.01 1102.76 7072.69 1279.34C7025.38 1455.93 6899.49 1575.64 6791.53 1546.71" stroke="#FFA5C1" stroke-width="5" stroke-linejoin="bevel"/>
<path d="M7046.52 1514.68C7204.85 1423.27 7259.09 1220.81 7167.68 1062.48C7076.27 904.154 6873.81 849.906 6715.48 941.318C6557.15 1032.73 6502.91 1235.19 6594.32 1393.52C6685.73 1551.85 6888.19 1606.09 7046.52 1514.68Z" stroke="#FFA5C1" stroke-width="5" stroke-miterlimit="10"/>
<path d="M6558.38 1146.8C6587.31 1038.84 6753.93 989.672 6930.51 1036.99C7107.1 1084.3 7226.81 1210.19 7197.88 1318.15" stroke="#FFA5C1" stroke-width="5" stroke-miterlimit="10"/>
<path d="M7197.9 1318.18C7168.97 1426.14 7002.35 1475.31 6825.77 1427.99C6649.18 1380.67 6529.45 1254.76 6558.38 1146.8" stroke="#FFA5C1" stroke-width="5" stroke-miterlimit="10" stroke-dasharray="15 15"/>
<path d="M7185.97 1097.9C7194.04 1116.25 7064.6 1190.91 6896.86 1264.65C6729.13 1338.41 6586.63 1383.33 6578.54 1365" stroke="#FFA5C1" stroke-width="5" stroke-miterlimit="10" stroke-dasharray="15 15"/>
<path d="M6578.54 1365C6570.47 1346.65 6699.91 1271.99 6867.65 1198.25C7035.38 1124.48 7177.9 1079.59 7185.96 1097.94" stroke="#FFA5C1" stroke-width="5" stroke-miterlimit="10"/>
<path d="M2338.79 378.222C2409.63 449.062 2373.13 600.388 2257.3 716.22C2141.46 832.052 1990.14 868.552 1919.3 797.749C1848.46 726.909 1884.96 575.583 2000.83 459.751C2116.62 343.919 2267.95 307.419 2338.79 378.222Z" fill="#98B0FF"/>
<path d="M1917.92 799.091C1916.13 797.303 1914.38 795.441 1912.74 793.578L1915.54 791.12C1917.14 792.945 1918.81 794.733 1920.53 796.483L1917.88 799.128L1917.92 799.091ZM1907.94 787.694C1906.41 785.682 1904.92 783.634 1903.54 781.548L1906.63 779.5C1907.97 781.548 1909.43 783.522 1910.88 785.459L1907.94 787.731V787.694ZM1899.56 775.142C1898.29 772.982 1897.1 770.747 1895.98 768.475L1899.33 766.836C1900.41 769.034 1901.57 771.194 1902.8 773.28L1899.56 775.142ZM1892.82 761.622C1891.85 759.313 1890.92 756.967 1890.06 754.583L1893.56 753.354C1894.38 755.663 1895.27 757.935 1896.24 760.17L1892.82 761.622ZM1887.71 747.395C1887.01 745.011 1886.33 742.59 1885.74 740.095L1889.35 739.238C1889.95 741.622 1890.58 744.005 1891.25 746.352L1887.68 747.432L1887.71 747.395ZM1884.17 732.72C1883.73 730.262 1883.32 727.804 1882.95 725.271L1886.63 724.75C1886.97 727.208 1887.38 729.629 1887.82 732.012L1884.17 732.72ZM1882.05 717.822C1881.83 715.364 1881.64 712.831 1881.49 710.299L1885.22 710.112C1885.37 712.571 1885.52 715.029 1885.78 717.45L1882.05 717.785V717.822ZM1881.27 702.812V700.317C1881.27 698.641 1881.27 696.965 1881.31 695.289L1885.03 695.363C1884.99 697.002 1884.96 698.678 1884.96 700.317V702.775L1881.23 702.812H1881.27ZM1885.37 687.989L1881.64 687.765C1881.79 685.27 1881.98 682.775 1882.24 680.279L1885.96 680.652C1885.74 683.11 1885.52 685.568 1885.37 688.026V687.989ZM1886.74 673.277L1883.06 672.793C1883.36 670.335 1883.73 667.839 1884.14 665.344L1887.82 665.94C1887.42 668.398 1887.08 670.819 1886.78 673.24L1886.74 673.277ZM1889.09 658.714L1885.44 658.007C1885.89 655.586 1886.41 653.128 1886.93 650.669L1890.58 651.451C1890.06 653.872 1889.54 656.293 1889.09 658.714ZM1892.26 644.263L1888.64 643.369C1889.24 640.948 1889.87 638.527 1890.54 636.107L1894.12 637.112C1893.45 639.496 1892.82 641.88 1892.26 644.263ZM1896.2 629.998L1892.63 628.918C1893.34 626.535 1894.12 624.151 1894.9 621.767L1898.44 622.922C1897.66 625.268 1896.91 627.652 1896.2 629.998ZM1900.82 615.92L1897.32 614.653C1898.14 612.307 1899.04 609.961 1899.93 607.614L1903.39 608.955C1902.5 611.264 1901.64 613.611 1900.82 615.92ZM1906.11 602.065L1902.65 600.649C1903.58 598.34 1904.55 596.031 1905.55 593.759L1908.98 595.249C1908.01 597.521 1907.04 599.793 1906.11 602.102V602.065ZM1912 588.47L1908.61 586.906C1909.65 584.634 1910.69 582.399 1911.77 580.127L1915.13 581.729C1914.05 583.964 1913 586.198 1912 588.433V588.47ZM1918.4 575.099L1915.09 573.423C1916.21 571.188 1917.36 568.991 1918.51 566.756L1921.79 568.507C1920.64 570.704 1919.48 572.902 1918.37 575.099H1918.4ZM1925.33 561.989L1922.05 560.201C1923.24 558.041 1924.47 555.844 1925.74 553.683L1928.98 555.546C1927.75 557.706 1926.52 559.866 1925.33 561.989ZM1932.74 549.139L1929.54 547.24C1930.81 545.117 1932.11 542.994 1933.45 540.871L1936.62 542.845C1935.31 544.968 1934.01 547.054 1932.74 549.177V549.139ZM1940.64 536.588L1937.51 534.539C1938.85 532.454 1940.23 530.368 1941.64 528.32L1944.74 530.405C1943.36 532.454 1941.98 534.539 1940.64 536.588ZM1948.91 524.297L1945.85 522.174C1947.27 520.126 1948.72 518.114 1950.17 516.066L1953.19 518.263C1951.74 520.275 1950.28 522.286 1948.91 524.297ZM1957.62 512.267L1954.64 510.032C1956.13 508.058 1957.66 506.047 1959.19 504.073L1962.13 506.345C1960.6 508.319 1959.11 510.256 1957.62 512.23V512.267ZM1966.71 500.535L1963.8 498.226C1965.37 496.289 1966.93 494.352 1968.53 492.415L1971.4 494.799C1969.84 496.699 1968.27 498.635 1966.71 500.535ZM1976.17 489.101L1973.34 486.68C1974.94 484.78 1976.58 482.918 1978.26 481.018L1981.05 483.477C1979.41 485.339 1977.77 487.201 1976.17 489.063V489.101ZM1985.97 477.964L1983.21 475.469C1984.89 473.644 1986.56 471.819 1988.27 469.957L1990.99 472.489C1989.28 474.314 1987.6 476.102 1985.97 477.927V477.964ZM1996.13 467.126L1993.45 464.519C1995.16 462.731 1996.92 460.943 1998.67 459.193L2001.31 461.837C1999.56 463.588 1997.85 465.375 1996.13 467.126ZM2006.6 456.623L2003.99 453.941C2005.78 452.191 2007.57 450.477 2009.39 448.764L2011.96 451.483C2010.17 453.159 2008.39 454.872 2006.6 456.623ZM2017.4 446.418L2014.87 443.662C2016.73 441.986 2018.55 440.31 2020.42 438.634L2022.88 441.427C2021.05 443.066 2019.19 444.704 2017.36 446.418H2017.4ZM2028.46 436.585L2026.04 433.754C2027.94 432.116 2029.84 430.514 2031.74 428.913L2034.12 431.78C2032.22 433.345 2030.36 434.946 2028.46 436.585ZM2039.86 427.05L2037.51 424.145C2039.45 422.581 2041.42 421.017 2043.36 419.49L2045.67 422.432C2043.73 423.959 2041.8 425.486 2039.86 427.05ZM2051.55 417.925L2049.32 414.946C2051.33 413.419 2053.3 411.929 2055.32 410.476L2057.51 413.493C2055.54 414.946 2053.53 416.436 2051.55 417.925ZM2063.51 409.173L2061.35 406.119C2063.4 404.666 2065.45 403.251 2067.49 401.836L2069.58 404.927C2067.53 406.305 2065.52 407.72 2063.47 409.173H2063.51ZM2075.8 400.793L2073.75 397.664C2075.84 396.286 2077.92 394.945 2080.05 393.604L2082.06 396.77C2079.97 398.074 2077.89 399.415 2075.84 400.793H2075.8ZM2088.31 392.859L2086.38 389.694C2088.5 388.39 2090.66 387.124 2092.82 385.857L2094.68 389.06C2092.56 390.29 2090.44 391.556 2088.31 392.859ZM2101.13 385.373L2099.3 382.133C2101.5 380.904 2103.66 379.712 2105.86 378.52L2107.61 381.798C2105.45 382.952 2103.29 384.144 2101.09 385.373H2101.13ZM2337.41 379.563C2336.92 379.079 2336.44 378.595 2335.92 378.11L2338.49 375.429C2339.01 375.913 2339.53 376.434 2340.02 376.919L2337.37 379.526L2337.41 379.563ZM2114.2 378.371L2112.49 375.056C2114.72 373.902 2116.96 372.784 2119.19 371.704L2120.83 375.056C2118.63 376.136 2116.4 377.254 2114.2 378.371ZM2330.52 373.231C2328.66 371.667 2326.72 370.14 2324.78 368.687L2326.98 365.671C2329.03 367.16 2331 368.725 2332.94 370.363L2330.56 373.194L2330.52 373.231ZM2127.53 371.891L2125.97 368.501C2128.24 367.458 2130.51 366.416 2132.79 365.41L2134.27 368.836C2132.04 369.805 2129.77 370.848 2127.53 371.891ZM2141.09 365.931L2139.68 362.505C2141.98 361.536 2144.33 360.605 2146.64 359.711L2147.98 363.175C2145.71 364.069 2143.4 365 2141.09 365.931ZM2318.75 364.553C2316.7 363.25 2314.58 361.983 2312.45 360.792L2314.28 357.551C2316.48 358.78 2318.64 360.084 2320.76 361.425L2318.75 364.553ZM2154.91 360.568L2153.64 357.067C2155.99 356.21 2158.37 355.391 2160.72 354.609L2161.91 358.147C2159.6 358.929 2157.26 359.749 2154.91 360.605V360.568ZM2305.9 357.439C2303.7 356.397 2301.47 355.391 2299.2 354.497L2300.61 351.033C2302.96 352.002 2305.27 353.007 2307.54 354.087L2305.94 357.439H2305.9ZM2168.95 355.838L2167.83 352.262C2170.22 351.518 2172.64 350.81 2175.02 350.139L2176.03 353.715C2173.68 354.385 2171.3 355.093 2168.91 355.838H2168.95ZM2292.31 351.89C2290 351.108 2287.65 350.363 2285.3 349.73L2286.31 346.154C2288.73 346.825 2291.15 347.57 2293.53 348.389L2292.34 351.927L2292.31 351.89ZM2183.18 351.815L2182.25 348.203C2184.67 347.57 2187.13 346.974 2189.55 346.452L2190.37 350.065C2187.98 350.624 2185.6 351.182 2183.18 351.815ZM2197.59 348.501L2196.85 344.851C2199.3 344.366 2201.76 343.92 2204.22 343.51L2204.85 347.197C2202.43 347.607 2200.01 348.054 2197.59 348.538V348.501ZM2278.19 347.905C2275.81 347.383 2273.42 346.899 2270.96 346.452L2271.6 342.765C2274.09 343.212 2276.55 343.696 2278.97 344.255L2278.15 347.905H2278.19ZM2212.19 346.043L2211.67 342.355C2214.17 342.02 2216.66 341.722 2219.12 341.461L2219.53 345.149C2217.11 345.409 2214.65 345.707 2212.19 346.043ZM2263.7 345.372C2261.28 345.074 2258.86 344.813 2256.36 344.59L2256.66 340.865C2259.19 341.089 2261.69 341.35 2264.15 341.648L2263.66 345.335L2263.7 345.372ZM2226.87 344.515L2226.61 340.791C2229.14 340.605 2231.63 340.493 2234.09 340.381L2234.24 344.106C2231.78 344.18 2229.32 344.329 2226.87 344.515ZM2248.99 344.143C2246.57 344.031 2244.11 343.994 2241.61 343.994V340.27C2244.15 340.27 2246.64 340.344 2249.14 340.419L2248.99 344.143Z" fill="#6680D3"/>
<path d="M2016.51 835.776C1976.21 835.776 1942.24 823.299 1917.96 799.053L1920.6 796.408C1954.38 830.19 2007.79 840.395 2070.96 825.161C2134.46 809.854 2200.16 770.672 2255.95 714.916C2370.89 599.978 2407.47 449.546 2337.48 379.562L2340.13 376.918C2411.56 448.354 2374.99 601.17 2258.6 717.523C2202.32 773.801 2136.03 813.28 2071.85 828.774C2052.45 833.467 2033.9 835.776 2016.54 835.776H2016.51Z" fill="#6680D3"/>
<path d="M2131.48 889C1966.9 889 1833 755.104 1833 590.481C1833 425.859 1966.9 292 2131.48 292C2296.07 292 2429.96 425.896 2429.96 590.481C2429.96 755.067 2296.07 888.963 2131.48 888.963V889ZM2131.48 295.724C1968.94 295.724 1836.72 427.944 1836.72 590.481C1836.72 753.019 1968.94 885.238 2131.48 885.238C2294.02 885.238 2426.24 753.019 2426.24 590.481C2426.24 427.944 2294.02 295.724 2131.48 295.724Z" fill="#6680D3"/>
<path d="M2338.34 803.745L2335.7 801.101C2405.68 731.118 2369.1 580.685 2254.17 465.747C2139.27 350.846 1988.8 314.272 1918.81 384.255L1916.17 381.611C1987.6 310.175 2140.42 346.749 2256.77 463.14C2373.16 579.53 2409.74 732.309 2338.3 803.745H2338.34Z" fill="#6680D3"/>
<path d="M2239.57 840.47C2237.89 840.47 2236.21 840.47 2234.54 840.395L2234.61 836.671C2236.25 836.708 2237.93 836.745 2239.57 836.745H2242.02L2242.06 840.47H2239.57ZM2249.55 840.209L2249.36 836.484C2251.86 836.335 2254.28 836.186 2256.74 835.926L2257.07 839.65C2254.61 839.874 2252.08 840.06 2249.55 840.209ZM2227.01 840.06C2224.52 839.911 2222.02 839.725 2219.53 839.464L2219.9 835.739C2222.36 835.963 2224.82 836.186 2227.28 836.335L2227.05 840.06H2227.01ZM2264.56 838.756L2264.04 835.069C2266.49 834.734 2268.92 834.324 2271.3 833.877L2272.01 837.527C2269.55 837.974 2267.09 838.384 2264.56 838.756ZM2212.08 838.645C2209.62 838.347 2207.13 837.974 2204.63 837.564L2205.23 833.877C2207.68 834.287 2210.11 834.622 2212.53 834.92L2212.04 838.607L2212.08 838.645ZM2197.26 836.261C2194.83 835.814 2192.38 835.292 2189.92 834.771L2190.7 831.121C2193.12 831.642 2195.54 832.164 2197.96 832.611L2197.26 836.261ZM2279.34 835.963L2278.49 832.35C2280.87 831.754 2283.25 831.121 2285.6 830.451L2286.68 834.026C2284.3 834.734 2281.88 835.404 2279.38 836L2279.34 835.963ZM2182.62 833.058C2180.2 832.462 2177.78 831.829 2175.36 831.158L2176.36 827.583C2178.74 828.253 2181.13 828.886 2183.51 829.445L2182.62 833.058ZM2293.79 831.642L2292.57 828.141C2294.87 827.322 2297.15 826.428 2299.38 825.46L2300.83 828.886C2298.52 829.855 2296.18 830.786 2293.79 831.642ZM2168.17 829.073C2165.78 828.365 2163.4 827.583 2161.02 826.801L2162.17 823.262C2164.52 824.045 2166.9 824.789 2169.25 825.497L2168.17 829.073ZM2307.72 825.721L2306.09 822.368C2308.28 821.288 2310.44 820.134 2312.53 818.905L2314.39 822.145C2312.23 823.411 2310 824.603 2307.72 825.721ZM2153.94 824.38C2151.59 823.56 2149.25 822.666 2146.9 821.773L2148.24 818.309C2150.55 819.203 2152.9 820.059 2155.21 820.879L2153.94 824.38ZM2139.94 819.054C2137.63 818.123 2135.32 817.154 2133.05 816.149L2134.5 812.722C2136.77 813.69 2139.04 814.659 2141.35 815.59L2139.94 819.054ZM2320.8 818.16L2318.75 815.068C2320.8 813.728 2322.77 812.275 2324.71 810.823L2326.98 813.765C2324.97 815.292 2322.92 816.782 2320.83 818.16H2320.8ZM2126.15 813.094C2123.88 812.052 2121.65 811.009 2119.38 809.929L2120.98 806.577C2123.21 807.657 2125.45 808.7 2127.68 809.705L2126.12 813.094H2126.15ZM2332.79 808.96L2330.33 806.167C2332.16 804.565 2333.94 802.889 2335.7 801.176L2338.34 803.82C2336.55 805.608 2334.69 807.359 2332.83 808.998L2332.79 808.96ZM2112.67 806.614C2110.47 805.496 2108.24 804.342 2106.01 803.187L2107.76 799.91C2109.95 801.064 2112.15 802.219 2114.35 803.299L2112.67 806.614ZM2099.45 799.612C2097.29 798.42 2095.09 797.191 2092.93 795.925L2094.79 792.684C2096.95 793.913 2099.12 795.142 2101.24 796.334L2099.45 799.612ZM2086.49 792.126C2084.37 790.859 2082.24 789.556 2080.12 788.215L2082.09 785.049C2084.18 786.353 2086.3 787.656 2088.43 788.922L2086.49 792.126ZM2073.79 784.192C2071.7 782.852 2069.62 781.473 2067.57 780.058L2069.65 776.967C2071.7 778.345 2073.79 779.723 2075.84 781.064L2073.83 784.192H2073.79ZM2061.39 775.85C2059.34 774.434 2057.33 772.982 2055.31 771.529L2057.48 768.512C2059.49 769.965 2061.5 771.417 2063.51 772.833L2061.39 775.887V775.85ZM2049.28 767.06C2047.31 765.57 2045.3 764.043 2043.32 762.516L2045.59 759.573C2047.57 761.1 2049.5 762.59 2051.48 764.08L2049.24 767.06H2049.28ZM2037.47 757.897C2035.54 756.333 2033.6 754.769 2031.66 753.167L2034.05 750.299C2035.95 751.864 2037.88 753.428 2039.78 754.992L2037.47 757.897ZM2025.93 748.363C2024.03 746.761 2022.17 745.122 2020.27 743.446L2022.73 740.653C2024.59 742.292 2026.45 743.931 2028.31 745.532L2025.89 748.363H2025.93ZM2014.72 738.493C2012.89 736.817 2011.03 735.141 2009.21 733.427L2011.74 730.709C2013.56 732.422 2015.35 734.098 2017.18 735.737L2014.68 738.493H2014.72ZM2003.81 728.25C2002.02 726.537 2000.23 724.787 1998.48 723.036L2001.12 720.392C2002.87 722.142 2004.66 723.855 2006.41 725.606L2003.81 728.288V728.25ZM1993.19 717.71C1991.44 715.922 1989.73 714.135 1988.01 712.31L1990.73 709.74C1992.45 711.527 1994.16 713.315 1995.87 715.103L1993.19 717.71ZM1982.95 706.834C1981.27 704.972 1979.6 703.147 1977.92 701.285L1980.71 698.827C1982.35 700.652 1983.99 702.514 1985.67 704.339L1982.91 706.872L1982.95 706.834ZM1973 695.661C1971.36 693.762 1969.76 691.862 1968.16 689.963L1971.03 687.579C1972.59 689.478 1974.2 691.341 1975.83 693.24L1973 695.661ZM1963.43 684.19C1961.87 682.253 1960.3 680.279 1958.78 678.342L1961.72 676.033C1963.25 677.97 1964.77 679.906 1966.34 681.843L1963.43 684.19ZM1954.19 672.383C1952.67 670.372 1951.18 668.398 1949.73 666.386L1952.74 664.189C1954.19 666.163 1955.68 668.174 1957.17 670.148L1954.19 672.383ZM1945.37 660.316C1943.92 658.267 1942.5 656.219 1941.12 654.17L1944.21 652.084C1945.59 654.133 1947.01 656.144 1948.42 658.193L1945.37 660.353V660.316ZM1936.95 647.95C1935.57 645.864 1934.23 643.779 1932.89 641.656L1936.06 639.645C1937.36 641.73 1938.7 643.816 1940.08 645.864L1936.95 647.913V647.95ZM1928.94 635.324C1927.64 633.164 1926.37 631.041 1925.11 628.881L1928.31 627.018C1929.54 629.141 1930.8 631.264 1932.11 633.387L1928.91 635.324H1928.94ZM1921.38 622.4C1920.15 620.203 1918.96 618.042 1917.77 615.845L1921.05 614.094C1922.2 616.255 1923.39 618.415 1924.62 620.612L1921.38 622.437V622.4ZM1914.31 609.215C1913.15 606.981 1912.03 604.746 1910.95 602.511L1914.31 600.872C1915.39 603.07 1916.5 605.305 1917.62 607.502L1914.31 609.215ZM1907.75 595.733C1906.71 593.461 1905.66 591.189 1904.66 588.917L1908.09 587.427C1909.05 589.662 1910.1 591.934 1911.14 594.168L1907.75 595.733ZM1901.75 582.027C1900.79 579.717 1899.85 577.408 1898.96 575.062L1902.42 573.721C1903.32 575.993 1904.25 578.302 1905.18 580.611L1901.75 582.027ZM1896.32 568.06C1895.46 565.713 1894.64 563.33 1893.82 560.983L1897.36 559.791C1898.14 562.1 1898.96 564.447 1899.82 566.793L1896.32 568.06ZM1891.55 553.869C1890.8 551.486 1890.1 549.065 1889.43 546.681L1893 545.675C1893.67 548.022 1894.38 550.406 1895.12 552.789L1891.55 553.907V553.869ZM1887.45 539.456C1886.82 536.997 1886.22 534.576 1885.7 532.155L1889.31 531.336C1889.87 533.72 1890.43 536.103 1891.06 538.524L1887.45 539.456ZM1884.1 524.818C1883.62 522.36 1883.17 519.902 1882.76 517.444L1886.45 516.811C1886.86 519.231 1887.3 521.652 1887.79 524.073L1884.14 524.818H1884.1ZM1881.6 510.032C1881.27 507.537 1880.97 505.041 1880.71 502.583L1884.4 502.21C1884.66 504.631 1884.96 507.09 1885.29 509.548L1881.6 510.069V510.032ZM1880.04 495.097C1879.85 492.564 1879.74 490.069 1879.63 487.573L1883.35 487.424C1883.43 489.882 1883.58 492.303 1883.76 494.799L1880.04 495.059V495.097ZM1883.24 480.087H1879.52C1879.52 477.554 1879.56 475.059 1879.67 472.563L1883.39 472.712C1883.28 475.133 1883.24 477.592 1883.24 480.087ZM1883.88 465.338L1880.15 465.04C1880.38 462.507 1880.64 460.012 1880.93 457.554L1884.62 458.038C1884.32 460.459 1884.06 462.88 1883.84 465.375L1883.88 465.338ZM1885.74 450.738L1882.09 450.105C1882.54 447.609 1883.02 445.151 1883.58 442.73L1887.19 443.55C1886.67 445.933 1886.19 448.317 1885.74 450.775V450.738ZM1888.98 436.399L1885.4 435.393C1886.07 432.972 1886.82 430.551 1887.64 428.167L1891.18 429.359C1890.39 431.668 1889.65 434.015 1889.02 436.399H1888.98ZM1893.71 422.506L1890.25 421.091C1891.18 418.744 1892.22 416.435 1893.3 414.163L1896.65 415.765C1895.61 417.962 1894.64 420.197 1893.71 422.469V422.506ZM1900.04 409.247L1896.76 407.422C1897.99 405.225 1899.3 403.064 1900.64 400.941L1903.77 402.953C1902.46 405.001 1901.2 407.124 1900 409.247H1900.04ZM1907.94 396.919L1904.96 394.721C1906.45 392.673 1908.05 390.699 1909.65 388.762L1912.48 391.146C1910.92 393.008 1909.39 394.945 1907.94 396.882V396.919ZM1917.36 385.745L1914.68 383.175L1916.2 381.648L1918.85 384.293L1917.4 385.783L1917.36 385.745Z" fill="#6680D3"/>
<path d="M2337.82 641.396H2332.9V637.671H2337.78H2340.31V641.396H2337.78H2337.82ZM2347.84 641.321V637.597C2350.33 637.597 2352.79 637.522 2355.21 637.485L2355.29 641.21C2352.87 641.247 2350.37 641.284 2347.8 641.321H2347.84ZM2325.45 641.321C2322.99 641.321 2320.5 641.247 2318 641.21L2318.08 637.485C2320.57 637.522 2323.07 637.56 2325.53 637.597V641.321H2325.45ZM2310.52 641.061C2308.06 640.986 2305.56 640.949 2303.07 640.874L2303.18 637.15C2305.68 637.224 2308.17 637.299 2310.63 637.336L2310.56 641.061H2310.52ZM2362.77 641.023L2362.66 637.299C2365.19 637.224 2367.69 637.113 2370.07 637.038L2370.22 640.763C2367.8 640.874 2365.31 640.949 2362.77 641.023ZM2295.62 640.614C2293.16 640.539 2290.67 640.427 2288.17 640.353L2288.32 636.628C2290.82 636.74 2293.31 636.815 2295.77 636.889L2295.66 640.614H2295.62ZM2377.71 640.353L2377.48 636.628C2380.05 636.479 2382.51 636.33 2384.9 636.144L2385.19 639.869C2382.81 640.055 2380.31 640.241 2377.71 640.39V640.353ZM2280.72 640.055L2273.27 639.72L2273.46 635.995L2280.91 636.33L2280.76 640.055H2280.72ZM2265.82 639.347L2258.37 638.938L2258.56 635.213L2266.01 635.623L2265.82 639.347ZM2392.64 639.198L2392.27 635.511C2394.84 635.25 2397.3 634.952 2399.61 634.654L2400.09 638.342C2397.75 638.64 2395.25 638.938 2392.64 639.198ZM2250.93 638.491L2243.48 638.044L2243.7 634.319L2251.15 634.766L2250.93 638.491ZM2236.03 637.56L2228.58 637.038L2228.84 633.314L2236.25 633.835L2235.99 637.56H2236.03ZM2407.54 637.187L2406.87 633.537C2409.48 633.053 2411.9 632.531 2413.98 631.973L2414.95 635.586C2412.76 636.182 2410.26 636.74 2407.54 637.224V637.187ZM2221.17 636.554L2213.72 635.995L2214.02 632.271L2221.43 632.829L2221.17 636.554ZM2206.27 635.399L2198.86 634.803L2199.16 631.079L2206.57 631.675L2206.27 635.399ZM2191.41 634.17L2184 633.537L2184.33 629.813L2191.74 630.446L2191.41 634.17ZM2422.33 632.941L2420.69 629.589C2423.11 628.435 2424.49 627.131 2424.6 625.976L2428.29 626.386C2427.99 628.919 2425.98 631.153 2422.29 632.941H2422.33ZM2176.58 632.867L2169.17 632.196L2169.51 628.472L2176.92 629.142L2176.58 632.867ZM2161.72 631.451L2154.31 630.706L2154.68 627.019L2162.1 627.764L2161.72 631.489V631.451ZM2146.9 629.999L2139.49 629.217L2139.86 625.529L2147.27 626.312L2146.9 629.999ZM2132.08 628.435L2124.67 627.615L2125.08 623.928L2132.49 624.747L2132.08 628.435ZM2117.25 626.796L2109.84 625.939L2110.29 622.252L2117.7 623.109L2117.29 626.796H2117.25ZM2102.43 625.045L2095.02 624.151L2095.47 620.464L2102.88 621.358L2102.43 625.045ZM2087.64 623.257L2080.23 622.326L2080.72 618.639L2088.09 619.57L2087.64 623.257ZM2072.86 621.395L2065.45 620.427L2065.93 616.74L2073.3 617.708L2072.82 621.395H2072.86ZM2058.07 619.421L2050.7 618.416L2051.22 614.728L2058.59 615.734L2058.11 619.421H2058.07ZM2043.29 617.336L2035.91 616.255L2036.47 612.568L2043.84 613.648L2043.32 617.336H2043.29ZM2028.54 615.175L2021.16 614.058L2021.72 610.371L2029.09 611.488L2028.54 615.175ZM2013.79 612.941L2006.41 611.786L2007.01 608.099L2014.38 609.253L2013.82 612.941H2013.79ZM1999.04 610.594L1991.66 609.365L1992.3 605.678L1999.63 606.907L1999.04 610.594ZM1984.33 608.136L1976.99 606.87L1977.62 603.22L1984.96 604.486L1984.33 608.173V608.136ZM1969.65 605.529C1967.19 605.082 1964.74 604.635 1962.31 604.188L1962.98 600.538C1965.41 600.985 1967.83 601.432 1970.32 601.879L1969.65 605.529ZM1954.98 602.81C1952.52 602.326 1950.06 601.879 1947.64 601.395L1948.35 597.745C1950.77 598.229 1953.19 598.676 1955.65 599.16L1954.94 602.81H1954.98ZM1940.34 599.942C1937.88 599.458 1935.42 598.936 1933.04 598.452L1933.78 594.802C1936.17 595.287 1938.59 595.808 1941.08 596.292L1940.34 599.942ZM1925.7 596.925C1923.24 596.404 1920.79 595.845 1918.4 595.324L1919.22 591.674C1921.61 592.195 1924.03 592.717 1926.48 593.275L1925.7 596.925ZM1911.14 593.685C1908.64 593.126 1906.22 592.53 1903.88 591.972L1904.73 588.359C1907.08 588.918 1909.5 589.514 1911.96 590.072L1911.14 593.685ZM1896.61 590.184C1894.12 589.551 1891.74 588.955 1889.39 588.322L1890.36 584.709C1892.7 585.342 1895.09 585.938 1897.55 586.571L1896.65 590.184H1896.61ZM1882.16 586.348C1879.67 585.64 1877.28 584.97 1874.97 584.262L1876.06 580.686C1878.36 581.357 1880.71 582.065 1883.21 582.735L1882.2 586.31L1882.16 586.348ZM1867.79 582.065C1865.29 581.245 1862.91 580.463 1860.67 579.681L1861.9 576.18C1864.1 576.962 1866.45 577.744 1868.9 578.526L1867.75 582.065H1867.79ZM1853.63 576.999C1851.06 575.956 1848.75 574.951 1846.71 573.945L1848.31 570.593C1850.28 571.561 1852.55 572.53 1855.01 573.535L1853.63 576.999ZM1839.96 570.221C1836.95 568.209 1835.05 566.31 1834.12 564.336L1837.47 562.734C1837.88 563.628 1839.03 565.118 1842.01 567.092L1839.96 570.183V570.221Z" fill="#6680D3"/>
<path d="M2428.29 626.386L2424.6 625.976C2424.82 624.002 2421.84 613.35 2341.99 595.622C2286.9 583.405 2213.12 571.897 2134.27 563.256C1961.23 544.224 1838.85 547.054 1837.25 561.468L1833.56 561.058C1836.02 538.86 1990.51 543.702 2134.68 559.531C2213.68 568.209 2287.58 579.718 2342.81 591.972C2400.65 604.821 2429.4 616.367 2428.29 626.349V626.386Z" fill="#6680D3"/>
<path d="M5446.12 556.761L5442.84 555.702L5539.78 254.757L5541.72 253.569L5836.17 303.038L5835.59 306.44L5542.61 257.229L5446.12 556.761Z" fill="#9F9AEB"/>
<path d="M5814.19 544.766L5813.23 544.241L5540.17 256.479L5541.71 253.602L5836.17 303.038L5837.13 303.563L6110.16 591.315L6108.62 594.191L5814.2 544.733L5814.19 544.766ZM5546.22 257.847L5815.3 541.425L6104.08 589.936L5835.04 306.336L5546.22 257.847Z" fill="#9F9AEB"/>
<path d="M6010.71 894.644L6005.98 889.637L6008.49 887.253L6013.22 892.26L6010.71 894.644ZM6001.22 884.62L5996.48 879.613L5998.99 877.228L6003.72 882.235L6001.22 884.62ZM5991.72 874.595L5986.98 869.588L5989.49 867.204L5994.23 872.211L5991.72 874.595ZM5982.22 864.571L5977.49 859.564L5979.99 857.18L5984.73 862.187L5982.22 864.571ZM5972.68 854.569L5967.94 849.562L5970.45 847.178L5975.19 852.184L5972.68 854.569ZM5963.18 844.544L5958.45 839.537L5960.95 837.153L5965.69 842.16L5963.18 844.544ZM5953.68 834.52L5948.95 829.513L5951.46 827.129L5956.19 832.136L5953.68 834.52ZM5944.17 824.528L5939.44 819.521L5941.95 817.137L5946.68 822.144L5944.17 824.528ZM5934.67 814.504L5929.94 809.497L5932.45 807.113L5937.18 812.12L5934.67 814.504ZM5925.17 804.48L5920.41 799.462L5922.92 797.078L5927.68 802.095L5925.17 804.48ZM5915.67 794.488L5910.9 789.471L5913.41 787.086L5918.17 792.104L5915.67 794.488ZM5906.17 784.464L5901.4 779.446L5903.91 777.062L5908.68 782.079L5906.17 784.464ZM5896.67 774.439L5891.9 769.422L5894.41 767.038L5899.18 772.055L5896.67 774.439ZM5887.17 764.415L5882.41 759.397L5884.91 757.013L5889.68 762.031L5887.17 764.415ZM5877.66 754.423L5872.9 749.406L5875.4 747.022L5880.17 752.039L5877.66 754.423ZM5868.16 744.399L5863.4 739.381L5865.91 736.997L5870.67 742.015L5868.16 744.399ZM5858.66 734.374L5853.9 729.357L5856.41 726.973L5861.17 731.99L5858.66 734.374ZM5849.16 724.383L5844.39 719.365L5846.9 716.981L5851.66 721.999L5849.16 724.383ZM5839.66 714.359L5834.92 709.352L5837.43 706.967L5842.17 711.974L5839.66 714.359ZM5830.13 704.324L5825.39 699.317L5827.9 696.932L5832.63 701.939L5830.13 704.324ZM5820.62 694.332L5815.88 689.325L5818.39 686.941L5823.13 691.948L5820.62 694.332ZM5811.12 684.308L5806.39 679.301L5808.89 676.917L5813.63 681.923L5811.12 684.308ZM5801.62 674.283L5796.89 669.276L5799.4 666.892L5804.13 671.899L5801.62 674.283ZM5444.18 557.949L5444.77 554.547L5449.62 555.349L5449.04 558.751L5444.18 557.949ZM5455.85 559.893L5456.44 556.491L5463.25 557.634L5462.66 561.035L5455.85 559.893ZM5469.47 562.177L5470.06 558.776L5476.87 559.918L5476.28 563.32L5469.47 562.177ZM5792.12 664.259L5787.39 659.252L5789.9 656.868L5794.63 661.875L5792.12 664.259ZM5483.09 564.462L5483.68 561.06L5490.49 562.202L5489.91 565.604L5483.09 564.462ZM5496.67 566.768L5497.26 563.367L5504.07 564.509L5503.49 567.911L5496.67 566.768ZM5510.3 569.053L5510.89 565.651L5517.7 566.793L5517.11 570.195L5510.3 569.053ZM5523.92 571.337L5524.51 567.935L5531.32 569.078L5530.73 572.479L5523.92 571.337ZM5782.61 654.267L5777.88 649.26L5780.39 646.876L5785.12 651.883L5782.61 654.267ZM5537.54 573.621L5538.13 570.22L5544.94 571.362L5544.36 574.764L5537.54 573.621ZM5551.17 575.906L5551.76 572.504L5558.57 573.646L5557.98 577.048L5551.17 575.906ZM5564.76 578.18L5565.35 574.778L5572.16 575.92L5571.57 579.322L5564.76 578.18ZM5773.11 644.243L5768.38 639.236L5770.89 636.852L5775.62 641.859L5773.11 644.243ZM5578.37 580.497L5578.96 577.095L5585.77 578.237L5585.18 581.639L5578.37 580.497ZM5591.99 582.781L5592.58 579.379L5599.39 580.521L5598.81 583.923L5591.99 582.781ZM5605.62 585.065L5606.21 581.664L5613.02 582.806L5612.43 586.208L5605.62 585.065ZM5763.62 634.218L5758.88 629.212L5761.39 626.827L5766.12 631.834L5763.62 634.218ZM5619.24 587.35L5619.83 583.948L5626.64 585.09L5626.05 588.492L5619.24 587.35ZM5632.83 589.624L5633.42 586.222L5640.23 587.364L5639.64 590.766L5632.83 589.624ZM5646.44 591.941L5647.03 588.539L5653.84 589.681L5653.26 593.083L5646.44 591.941ZM5660.07 594.225L5660.65 590.823L5667.47 591.965L5666.88 595.367L5660.07 594.225ZM5754.11 624.227L5749.34 619.209L5751.85 616.825L5756.62 621.843L5754.11 624.227ZM5673.69 596.509L5674.28 593.108L5681.09 594.25L5680.5 597.652L5673.69 596.509ZM5687.31 598.794L5687.9 595.392L5694.71 596.534L5694.13 599.936L5687.31 598.794ZM5700.9 601.067L5701.49 597.666L5708.3 598.808L5707.72 602.21L5700.9 601.067ZM5744.61 614.203L5739.84 609.185L5742.35 606.801L5747.12 611.818L5744.61 614.203ZM5714.53 603.352L5715.12 599.95L5721.93 601.092L5721.34 604.494L5714.53 603.352ZM5728.14 605.669L5728.73 602.267L5735.54 603.409L5734.95 606.811L5728.14 605.669Z" fill="#9F9AEB"/>
<path d="M5717.25 845.711L5716.26 845.175L5443.23 557.423L5445.74 555.039L5718.39 842.38L6012.27 891.734L6011.68 895.136L5717.25 845.711Z" fill="#9F9AEB"/>
<path d="M5627.74 427.293L5625.24 429.67L5894.97 713.946L5897.47 711.569L5627.74 427.293Z" fill="black"/>
<path d="M5623.45 451.477L5627.89 451.42L5627.66 429.727L5649.35 431.055L5649.6 426.674L5623.23 425.034L5623.48 451.487L5623.45 451.477Z" fill="black"/>
<path d="M6011.97 893.453L5717.55 843.995L5814.49 543.05L6108.91 592.508L6011.97 893.453Z" fill="#4D498B"/>
<path d="M5717.21 845.701L5715.87 843.455L5812.81 542.51L5814.74 541.354L6109.16 590.812L6110.52 593.026L6013.58 893.971L6011.64 895.159L5717.21 845.701ZM5815.64 544.981L5719.77 842.607L6010.76 891.467L6106.62 593.874L5815.63 545.014L5815.64 544.981Z" fill="#9F9AEB"/>
<path d="M5742.25 601.037L5738.97 599.979L5741.08 593.406L5744.37 594.464L5742.25 601.037ZM5746.49 587.891L5743.2 586.833L5745.32 580.26L5748.6 581.318L5746.49 587.891ZM5750.72 574.745L5747.43 573.687L5749.55 567.113L5752.84 568.172L5750.72 574.745ZM5754.95 561.599L5751.67 560.54L5753.79 553.967L5757.07 555.026L5754.95 561.599ZM5759.19 548.453L5755.9 547.394L5758.02 540.821L5761.31 541.88L5759.19 548.453ZM5763.42 535.307L5760.14 534.248L5762.26 527.675L5765.54 528.734L5763.42 535.307ZM5767.66 522.161L5764.37 521.102L5766.49 514.529L5769.78 515.588L5767.66 522.161ZM5771.89 509.015L5768.61 507.956L5770.72 501.383L5774.01 502.442L5771.89 509.015ZM5776.13 495.869L5772.84 494.81L5774.96 488.237L5778.24 489.296L5776.13 495.869ZM5780.36 482.723L5777.08 481.664L5779.19 475.091L5782.48 476.15L5780.36 482.723ZM5784.6 469.577L5781.31 468.518L5783.43 461.945L5786.71 463.004L5784.6 469.577ZM5788.83 456.431L5785.55 455.372L5787.66 448.799L5790.95 449.858L5788.83 456.431ZM5793.07 443.285L5789.78 442.226L5791.9 435.653L5795.18 436.712L5793.07 443.285ZM5797.3 430.139L5794.01 429.08L5796.13 422.507L5799.42 423.566L5797.3 430.139ZM5801.53 416.993L5798.25 415.934L5800.37 409.361L5803.65 410.42L5801.53 416.993ZM5805.77 403.847L5802.48 402.788L5804.6 396.215L5807.89 397.274L5805.77 403.847ZM5810 390.701L5806.72 389.642L5808.84 383.069L5812.12 384.128L5810 390.701ZM5814.24 377.555L5810.95 376.496L5813.07 369.923L5816.36 370.982L5814.24 377.555ZM5818.47 364.409L5815.19 363.35L5817.3 356.777L5820.59 357.836L5818.47 364.409ZM5822.71 351.263L5819.42 350.204L5821.54 343.631L5824.82 344.69L5822.71 351.263ZM5826.94 338.117L5823.66 337.058L5825.77 330.485L5829.06 331.544L5826.94 338.117ZM5831.18 324.971L5827.89 323.912L5830.01 317.339L5833.29 318.398L5831.18 324.971ZM5835.41 311.825L5832.13 310.766L5834.24 304.193L5837.53 305.252L5835.41 311.825Z" fill="#9F9AEB"/>
<path d="M1370.77 1278.34L938.602 1407.57L789.507 1030.64L1370.77 1278.34Z" stroke="#E0A382" stroke-width="10" stroke-miterlimit="10"/>
<path d="M814.025 844.504L789.507 1030.64L1370.77 1278.34L1395.29 1092.21L814.025 844.504Z" fill="#9F5F49" stroke="#E0A382" stroke-width="10" stroke-miterlimit="10"/>
<path d="M1395.29 1092.2L963.094 1221.44L814.024 844.502" stroke="#E0A382" stroke-width="10" stroke-miterlimit="10" stroke-dasharray="15 15"/>
<path d="M963.095 1221.44L938.602 1407.57" stroke="#E0A382" stroke-width="10" stroke-miterlimit="10" stroke-dasharray="15 15"/>
<path d="M1031.51 1012.69C1016.36 954.268 1049.93 893.934 1108.09 876.542C1166.25 859.151 1230.29 892.685 1248.13 952.337" stroke="black" stroke-width="10" stroke-miterlimit="10"/>
<path d="M1044.39 996.564L1041.03 994.617L1031.38 1011.19L1015.57 1000.33L1013.39 1003.53L1032.65 1016.77L1044.39 996.564Z" fill="black"/>
</svg>
