<?xml version="1.0" encoding="UTF-8"?>
<svg id="Layer_2" data-name="Layer 2" xmlns="http://www.w3.org/2000/svg" viewBox="0 0 90 126">
  <defs>
    <style>
      .cls-1 {
        fill: #fdfdfd;
      }
    </style>
  </defs>
  <g id="Layer_1-2" data-name="Layer 1">
    <g>
      <rect class="cls-1" x="72" y="18" width="9" height="9"/>
      <polygon class="cls-1" points="63 36 54 36 54 45 63 45 72 45 81 45 81 54 81 63 90 63 90 54 90 45 90 36 81 36 72 36 72 27 63 27 63 36"/>
      <rect class="cls-1" x="72" y="63" width="9" height="9"/>
      <rect class="cls-1" x="63" y="72" width="9" height="9"/>
      <rect class="cls-1" x="54" y="81" width="9" height="9"/>
      <rect class="cls-1" x="45" y="90" width="9" height="9"/>
      <rect class="cls-1" x="36" y="99" width="9" height="9"/>
      <rect class="cls-1" x="27" y="108" width="9" height="9"/>
      <polygon class="cls-1" points="18 108 9 108 9 117 9 126 18 126 27 126 27 117 18 117 18 108"/>
      <polygon class="cls-1" points="27 99 27 90 18 90 18 99 18 108 27 108 27 99"/>
      <polygon class="cls-1" points="36 81 36 72 45 72 45 63 36 63 27 63 18 63 9 63 9 54 9 45 0 45 0 54 0 63 0 72 9 72 18 72 27 72 27 81 27 90 36 90 36 81"/>
      <polygon class="cls-1" points="36 0 27 0 27 9 36 9 81 9 81 18 90 18 90 9 90 0 36 0"/>
      <polygon class="cls-1" points="27 18 27 9 18 9 18 18 18 27 27 27 27 18"/>
      <polygon class="cls-1" points="18 36 18 27 9 27 9 36 9 45 18 45 18 36"/>
    </g>
  </g>
</svg>